<svg xmlns="http://www.w3.org/2000/svg" viewBox="0 0 841.17 643.11"><defs><style>.cls-1{fill:#dae0ec;}.cls-2{fill:#ba97fc;}.cls-3{fill:#640df3;}.cls-4{fill:#8fe2ff;}.cls-5{fill:#30beff;}.cls-6{fill:#83b3ff;}.cls-7{fill:#1f6bff;}.cls-8{fill:#869ac0;}.cls-9{fill:#212837;}.cls-10{fill:#a8b6d1;}.cls-11{fill:#657eae;}.cls-12{fill:#3c4e71;}.cls-13{fill:#fd9500;}.cls-14{fill:#ff9500;}.cls-15{fill:#88b6ff;}.cls-16{fill:#0f0a3c;}.cls-17{fill:#fc0;}</style></defs><title>Asset 1</title><g id="Layer_2" data-name="Layer 2"><g id="Layer_1-2" data-name="Layer 1"><ellipse class="cls-1" cx="409.81" cy="526.12" rx="409.81" ry="19.84"/><ellipse class="cls-1" cx="311.98" cy="630.11" rx="79.36" ry="13"/><path class="cls-2" d="M569.71,456.11s2.42-81.59,76.83-129.33S797.37,313.9,797.37,313.9s-7.48,70.77-78.26,127.7S569.71,456.11,569.71,456.11Z"/><polygon class="cls-3" points="703.32 452.82 708.23 449.87 634.31 417.46 709.37 370.57 763.63 394.13 766.33 390.4 713.81 367.79 797.22 315.69 797.47 314.01 794.33 312.42 745.57 342.87 749.04 302.36 744.74 301.99 740.99 345.73 670.99 389.46 665.7 316.2 660.94 318.5 666.86 392.04 569.72 452.72 569.72 456.11 571.09 456.95 629.89 420.21 703.32 452.82"/><path class="cls-4" d="M572.73,451.41s45-68.07,133.44-69.44,135,68.54,135,68.54-43.65,56.2-133.81,67.28S572.73,451.41,572.73,451.41Z"/><polygon class="cls-5" points="688.01 519.01 693.74 519.1 647.99 452.59 736.49 452.3 770.19 500.91 774.45 499.17 741.73 452.28 840.08 451.95 841.17 450.65 839.34 447.64 781.85 447.83 806.15 415.23 802.7 412.65 776.46 447.85 693.92 448.13 728.02 383.08 722.77 382.52 689.05 448.14 574.51 448.53 572.73 451.41 573.45 452.84 642.79 452.61 688.01 519.01"/><path class="cls-6" d="M571,454.52s-37.59-72.45,4.17-150.37,125.51-84.66,125.51-84.66,27.9,65.47-6.23,149.64S571,454.52,571,454.52Z"/><polygon class="cls-7" points="686.11 386.62 688.96 381.66 608.61 389.31 651.36 311.82 710.23 306 710.78 301.43 653.89 307.24 701.4 221.13 700.81 219.54 697.28 219.68 669.51 270.01 652.82 232.93 648.89 234.7 666.9 274.74 627.03 347 586.75 285.58 583.72 289.91 624.68 351.27 569.35 451.56 570.99 454.52 572.6 454.58 606.1 393.87 686.11 386.62"/><rect class="cls-8" x="186.47" y="188.11" width="428.9" height="263.94"/><path class="cls-9" d="M610.35,155.11H191.47a38,38,0,0,0-38,37.91V493.29a8.24,8.24,0,0,0,8.25,8.24H640.11a8.24,8.24,0,0,0,8.25-8.24V193A38,38,0,0,0,610.35,155.11ZM186.47,443.8V196.35a8.24,8.24,0,0,1,8.25-8.24h412.4a8.24,8.24,0,0,1,8.25,8.24V443.8a8.25,8.25,0,0,1-8.25,8.25H194.72A8.25,8.25,0,0,1,186.47,443.8Z"/><path class="cls-10" d="M656.61,485H145.23a8.25,8.25,0,0,0-8.25,8.25h0a33.05,33.05,0,0,0,33,33H631.83a33.06,33.06,0,0,0,33-33h0A8.25,8.25,0,0,0,656.61,485Z"/><path class="cls-8" d="M367.93,501.53h66A16.49,16.49,0,0,0,450.41,485h-99A16.49,16.49,0,0,0,367.93,501.53Z"/><circle class="cls-11" cx="409.69" cy="293.13" r="69.34" transform="translate(-20.27 555.64) rotate(-66.99)"/><path class="cls-9" d="M410.87,223.8a69.3,69.3,0,0,0-45.8,122.35,18.32,18.32,0,0,1,3.29-2.34l20.69-11.29a8.45,8.45,0,0,0,4.4-7.42v-8.47a46.12,46.12,0,0,1-8.39-17.36,7,7,0,0,1-3.2-5.84v-9.28a6.92,6.92,0,0,1,2.31-5.14V265.6s-2.75-20.87,25.52-20.87S435.2,265.6,435.2,265.6V279a6.93,6.93,0,0,1,2.32,5.14v9.28a7,7,0,0,1-4.94,6.62,51,51,0,0,1-6.89,13.88,33.36,33.36,0,0,1-2.09,2.7v8.69a8.43,8.43,0,0,0,4.67,7.55L450.42,344a18.09,18.09,0,0,1,3.64,2.44A69.33,69.33,0,0,0,410.87,223.8Z"/><rect class="cls-9" x="340.35" y="376.17" width="138.68" height="41.09" rx="12"/><path class="cls-11" d="M376.46,403.52h-2.95l-1.17-3H367l-1.11,3H363l5.23-13.42h2.87Zm-5-5.31-1.85-5-1.81,5Z"/><path class="cls-11" d="M386.49,398.59l2.63.83a5.83,5.83,0,0,1-2,3.26,6.31,6.31,0,0,1-8-.76,7,7,0,0,1-1.73-5,7.36,7.36,0,0,1,1.73-5.21,6,6,0,0,1,4.56-1.85,5.59,5.59,0,0,1,4,1.45,5.28,5.28,0,0,1,1.37,2.48l-2.68.64a2.85,2.85,0,0,0-1-1.65,2.89,2.89,0,0,0-1.84-.61,3,3,0,0,0-2.42,1.08,5.24,5.24,0,0,0-.93,3.47,5.63,5.63,0,0,0,.91,3.62,3,3,0,0,0,2.38,1.08,2.67,2.67,0,0,0,1.86-.68A4,4,0,0,0,386.49,398.59Z"/><path class="cls-11" d="M400,398.59l2.63.83a5.94,5.94,0,0,1-2,3.26,5.7,5.7,0,0,1-3.57,1.07,5.79,5.79,0,0,1-4.4-1.83,7,7,0,0,1-1.72-5,7.36,7.36,0,0,1,1.73-5.21,5.93,5.93,0,0,1,4.55-1.85,5.6,5.6,0,0,1,4,1.45,5.28,5.28,0,0,1,1.37,2.48l-2.68.64a2.81,2.81,0,0,0-1-1.65,2.84,2.84,0,0,0-1.83-.61,3.05,3.05,0,0,0-2.43,1.08,5.24,5.24,0,0,0-.93,3.47,5.62,5.62,0,0,0,.92,3.62,3,3,0,0,0,2.38,1.08,2.7,2.7,0,0,0,1.86-.68A4,4,0,0,0,400,398.59Z"/><path class="cls-11" d="M404.44,396.89a8.5,8.5,0,0,1,.62-3.44,6.06,6.06,0,0,1,1.25-1.84A5.09,5.09,0,0,1,408,390.4a7.29,7.29,0,0,1,2.9-.53,6.3,6.3,0,0,1,4.75,1.84,8.23,8.23,0,0,1,0,10.21,7.07,7.07,0,0,1-9.49,0A6.9,6.9,0,0,1,404.44,396.89Zm2.8-.09a5.06,5.06,0,0,0,1.05,3.46,3.44,3.44,0,0,0,2.68,1.17,3.4,3.4,0,0,0,2.66-1.16,5.16,5.16,0,0,0,1-3.51,5,5,0,0,0-1-3.44,3.41,3.41,0,0,0-2.68-1.14,3.49,3.49,0,0,0-2.71,1.15A5.12,5.12,0,0,0,407.24,396.8Z"/><path class="cls-11" d="M419.57,390.1h2.71v7.27a14.68,14.68,0,0,0,.1,2.24,2.17,2.17,0,0,0,.83,1.33,2.88,2.88,0,0,0,1.79.49,2.7,2.7,0,0,0,1.74-.47,1.85,1.85,0,0,0,.7-1.16,14.84,14.84,0,0,0,.12-2.28V390.1h2.71v7a17.72,17.72,0,0,1-.22,3.41,3.66,3.66,0,0,1-.81,1.69,4,4,0,0,1-1.58,1.09,6.7,6.7,0,0,1-2.58.41,7.61,7.61,0,0,1-2.92-.44,4.21,4.21,0,0,1-1.57-1.16,3.74,3.74,0,0,1-.76-1.48,16.23,16.23,0,0,1-.26-3.41Z"/><path class="cls-11" d="M433.16,403.52V390.1h2.64l5.49,9v-9h2.52v13.42h-2.72l-5.41-8.75v8.75Z"/><path class="cls-11" d="M449.7,403.52V392.37h-4V390.1h10.67v2.27h-4v11.15Z"/><path class="cls-12" d="M286.41,619.94a20.63,20.63,0,0,0,4.75,4.16c2.33,1.27,6,1.77,7.38,3.07,1,1,3.63,5-6.06,4.93s-14.37.57-15.41-1,1.5-11.49,1.5-11.49S280.87,620.45,286.41,619.94Z"/><path class="cls-12" d="M341,619.94a20.4,20.4,0,0,0,4.75,4.16c2.33,1.27,10.92,2.3,12.3,3.61,1,.94,2.65,4.74-11,4.39-9.69-.26-14.37.57-15.4-1s1.45-11.36,1.45-11.36S335.31,620.5,341,619.94Z"/><path class="cls-13" d="M293.42,491.52s-7.16,11.37-6.63,21.65-2.59,21.5-3.67,32.23c-1.19,12-6.1,40.31-6.28,46.72s1.4,29.36,1.4,29.36l8.95-.87s8.48-51,10.61-56,12.73-41.09,13.09-45.13S293.42,491.52,293.42,491.52Z"/><path class="cls-13" d="M331.09,493.06s5.4,28.17,6.11,34.46,1.19,30.45,1.54,34.38S340,614.08,340.9,620l-8.09.57s-12-36-12-52.31-7.44-35.53-12.25-46.32-15.8-11-18.75-31.05C289.82,490.93,327.09,486.71,331.09,493.06Z"/><path class="cls-1" d="M305.36,395.91s9.61-3.59,14,3.73,4,21.95-.84,23.75-12.12.86-14.6-3.72-4.72-11.19-4.61-15.61S302.84,397.19,305.36,395.91Z"/><path class="cls-1" d="M317.51,423.72s-.4,2.6.26,3.88-12.44,1.31-12.44,1.31a87.24,87.24,0,0,0-3.08-12.82C300.23,410.21,317.51,423.72,317.51,423.72Z"/><path class="cls-1" d="M386.1,400.5a2.64,2.64,0,0,0-1.71-1.58,4.28,4.28,0,0,0-2-1.27l-.08-.16c.87-.94,3.4-2.68,3.54-3s.14-.45-.35-.72-4.53,2.46-5.91,3.37a7.56,7.56,0,0,0-.67.46,9.94,9.94,0,0,0-1.79,1.24l-.21.23c-.68.88-2.29,7.86-2.29,7.86l2.87,1.29,2.76,2.34s3.23-2.67,4.06-3.51a8.05,8.05,0,0,0,1.43-2.23c.06-.1.16-.24.28-.41.37-.5.94-1.18.94-1.18a4.68,4.68,0,0,0,.45-1.38C387.39,401,386.1,400.5,386.1,400.5Z"/><path class="cls-7" d="M375.05,405.76c-.61-.21-9.15,10.86-12.43,14.42a92.32,92.32,0,0,1-7.56,6s-13.37,5.21-18.14,4.94c-7.61-1-18.37-3.7-18.37-3.7l-14.72-.6s-14.37,3-19.69,5.38c-3.06,1.39-11.67,31.62-9.94,42.38.82,5.12,24.54,32,24.54,32s7.74-7.25,8.09-8.38-17.9-19.92-19.64-24.83-2.59-2.88.78-13.37c.75,5.69,2.24,17.28,2.63,23.32.24,3.77-5.26,35.3-5.26,35.3a102.13,102.13,0,0,0,15.94,2.84c10.05,1.1,35.15-.4,35.31-1.59s-4.86-44.18-5.09-46.41c-.34-3.42,1.18-21.58,1.18-21.58,2.32-1.8,22.69-11.25,28.24-16.18,1.49-1.32,7.77-7.43,9.55-9.54,6.32-7.47,11.5-13.88,12.13-15.26C383.31,410.1,375.73,406,375.05,405.76Z"/><path class="cls-12" d="M303.36,417.74s-18.19-8.19-9.52-18c0,0-4.92-12.3,16.16-12.71,15-.28,10.4-6.64,10.4-6.64s14.15,8.09,3.46,16.46c-8.89,7-12.12,1.73-14.43,3.47s-.87,5.48-.87,5.48-4.33-5.48-7.51-1.73S303.36,417.74,303.36,417.74Z"/><path class="cls-1" d="M486.38,83.15l-3.27,15.14a13,13,0,0,0,4.29,12.62L499.3,121l7.58-6.21-8-12.48,4.91-11.59Z"/><path class="cls-1" d="M555.45,89.84l15.6-6.69L575,98.81a13,13,0,0,1-3.85,12.74l-12.09,11V102.08Z"/><path class="cls-7" d="M520.25,57.75l8.46,12,6.69-12,15,1.42A15.84,15.84,0,0,1,563,67.65l8,15.5-15.6,6.69L559,98.75v23.81L527.38,137.3l-20.06-11.36-8.47-23.62,4.91-11.59-17.38-7.58L496.7,66.71A15.86,15.86,0,0,1,508,59.42Z"/><polygon class="cls-12" points="494.84 125.94 494.84 98.75 563.47 98.75 563.47 125.94 527.38 137.3 494.84 125.94"/><path class="cls-14" d="M561.25,156.24s-68.64-7.57-92.7-20.05,1.78-24.51,24.06-17.38,68.64,24.51,68.64,24.51Z"/><path class="cls-14" d="M498,156.24l-1.61-10.88s78.71-35.91,100.1-24.77S560.8,152.23,498,156.24Z"/><path class="cls-12" d="M496.4,145.32,498,156.24s-28.3,3.57-30.52,2.45-9.59-6-4.91-10.69S489.94,143.1,496.4,145.32Z"/><path class="cls-12" d="M562.17,146.44l-1.56,10.47s28.3,3.57,30.53,2.45,9.58-6,4.9-10.69S568.63,144.21,562.17,146.44Z"/><polygon class="cls-10" points="520.25 57.75 528.71 72.23 535.4 57.75 535.4 47.5 520.25 47.5 520.25 57.75"/><path class="cls-1" d="M524.52,53.42S514,46.77,512.79,38.59s-1.19-14.9,1.56-15.52,21.09-4.83,22.15-4.28,4.83,11,5,14.84c.35,7.65-7.75,19.15-10.12,20.48S524.52,53.42,524.52,53.42Z"/><path class="cls-12" d="M513,39.51s-4.09-5.6-4.76-12.06,2.26-12.65,4.68-13.82c13.82-6.68,19.17,1.78,31-2.67a73.62,73.62,0,0,1-2.23,8.24,18.19,18.19,0,0,0-.8,10.73s-3.66-5.83-6.78-6.72-14.71,2.9-17.38,0C516.68,23.21,511.26,24,513,39.51Z"/><circle class="cls-15" cx="287.44" cy="79.73" r="71.1"/><circle class="cls-7" cx="287.44" cy="79.73" r="41.02" transform="translate(27.81 226.6) rotate(-45)"/><path class="cls-9" d="M243.69,156.29a2.68,2.68,0,0,1-1.93-.8,2.72,2.72,0,0,1,0-3.86l10.75-10.76a2.74,2.74,0,0,1,3.87,3.87l-10.76,10.75A2.68,2.68,0,0,1,243.69,156.29Z"/><path class="cls-9" d="M331.19,156.29a2.68,2.68,0,0,1-1.93-.8l-10.84-10.83a2.74,2.74,0,0,1,3.87-3.87l10.84,10.84a2.73,2.73,0,0,1-1.94,4.66Z"/><path class="cls-9" d="M336.92,31.09a2.68,2.68,0,0,1-1.93-.8,2.72,2.72,0,0,1,0-3.86l8.2-8.21a2.74,2.74,0,0,1,3.87,3.87l-8.21,8.2A2.68,2.68,0,0,1,336.92,31.09Z"/><path class="cls-9" d="M238,31.09a2.72,2.72,0,0,1-1.94-.8l-8.2-8.2a2.74,2.74,0,1,1,3.87-3.87l8.2,8.21a2.72,2.72,0,0,1,0,3.86A2.68,2.68,0,0,1,238,31.09Z"/><path class="cls-9" d="M287.44,156.29A76.57,76.57,0,1,1,364,79.73,76.65,76.65,0,0,1,287.44,156.29Zm0-142.19a65.63,65.63,0,1,0,65.63,65.63A65.69,65.69,0,0,0,287.44,14.1Z"/><path class="cls-16" d="M287.44,16.5a2.74,2.74,0,0,0-2.73,2.74V22a2.74,2.74,0,1,0,5.47,0V19.24A2.74,2.74,0,0,0,287.44,16.5Z"/><path class="cls-16" d="M287.44,134.09a2.73,2.73,0,0,0-2.73,2.73v2.74a2.74,2.74,0,0,0,5.47,0v-2.74A2.73,2.73,0,0,0,287.44,134.09Z"/><path class="cls-16" d="M347.6,76.66h-2.73a2.74,2.74,0,1,0,0,5.47h2.73a2.74,2.74,0,1,0,0-5.47Z"/><path class="cls-16" d="M230,76.66h-2.74a2.74,2.74,0,0,0,0,5.47H230a2.74,2.74,0,0,0,0-5.47Z"/><path class="cls-16" d="M328.05,34.92l-1.94,1.94A2.73,2.73,0,1,0,330,40.72l1.93-1.93a2.73,2.73,0,0,0-3.86-3.87Z"/><path class="cls-16" d="M244.91,118.07,243,120a2.73,2.73,0,0,0,0,3.87,2.77,2.77,0,0,0,1.94.8,2.73,2.73,0,0,0,1.93-.8l1.93-1.93a2.73,2.73,0,0,0-3.86-3.87Z"/><path class="cls-16" d="M330,118.07a2.74,2.74,0,0,0-3.87,3.87l1.94,1.93a2.73,2.73,0,0,0,3.86-3.87Z"/><path class="cls-16" d="M246.84,34.92A2.74,2.74,0,0,0,243,38.79l1.94,1.93a2.73,2.73,0,0,0,3.86-3.86Z"/><path class="cls-17" d="M254.63,79.73a2.73,2.73,0,0,0,2.74,2.73h19.52a10.92,10.92,0,1,0,13.29-13.28V41.45a2.74,2.74,0,1,0-5.47,0V69.18A10.92,10.92,0,0,0,276.89,77H257.37A2.74,2.74,0,0,0,254.63,79.73Zm27.35,0a5.47,5.47,0,1,1,5.46,5.47A5.47,5.47,0,0,1,282,79.73Z"/><path class="cls-7" d="M358.31,5.7a19.48,19.48,0,0,1,0,27.54L330.77,5.7A19.48,19.48,0,0,1,358.31,5.7Z"/><path class="cls-7" d="M216.58,5.7a19.48,19.48,0,0,0,0,27.54L244.12,5.7A19.48,19.48,0,0,0,216.58,5.7Z"/><polygon class="cls-15" points="48.13 465.17 63.45 523.94 110.12 523.94 124.22 465.17 48.13 465.17"/><path class="cls-15" d="M122.8,393.69a18.43,18.43,0,0,0-8.14-15.3,16.12,16.12,0,0,0-12.61-26.2l-.69,0a16.14,16.14,0,1,0-30.9,0c-.23,0-.46,0-.69,0a16.13,16.13,0,0,0-12.61,26.21,18.43,18.43,0,0,0,0,30.6,16.12,16.12,0,0,0,12.61,26.2h32.28A16.13,16.13,0,0,0,114.66,409,18.43,18.43,0,0,0,122.8,393.69Z"/><path class="cls-7" d="M103.68,382.84a2.31,2.31,0,0,0-3.26,0L88.21,395V361.41a2.31,2.31,0,1,0-4.61,0v16.34L73.13,367.27a2.31,2.31,0,0,0-3.26,3.26L83.6,384.27v31.52l-9.9-9.9a2.31,2.31,0,0,0-3.26,3.26L83.6,422.31v42.86a2.31,2.31,0,1,0,4.61,0V401.4a1.92,1.92,0,0,0,.48-.32l15-15a2.31,2.31,0,0,0,0-3.26Z"/><path class="cls-7" d="M125.11,467.48H46.71a2.31,2.31,0,0,1,0-4.62h78.4a2.31,2.31,0,0,1,0,4.62Z"/></g></g></svg>